<svg xmlns="http://www.w3.org/2000/svg" viewBox="0 0 216 216"><defs><style>.cls-1{fill:#fa360a;}</style></defs><title>logo</title><g id="Layer_2" data-name="Layer 2"><path class="cls-1" d="M177,30.31a5,5,0,1,1-4.94,4.95A5,5,0,0,1,177,30.31m0-5a10,10,0,1,0,9.95,10A9.95,9.95,0,0,0,177,25.31Z"/><rect class="cls-1" x="-10.83" y="122.25" width="132.67" height="11.5" rx="5.75" transform="translate(156.8 32.07) rotate(70)"/><rect class="cls-1" x="71.4" y="147.34" width="79.19" height="11.5" rx="5.75" transform="translate(216.9 -3.57) rotate(70)"/><rect class="cls-1" x="48.21" y="147.36" width="79.19" height="11.5" rx="5.75" transform="translate(-86.1 183.25) rotate(-70)"/><path class="cls-1" d="M179.93,44.07l-52,142.8a5.74,5.74,0,0,1-7.37,3.43h0a5.74,5.74,0,0,1-3.43-7.36L169.71,38.51c1.09-3,2.23,1.43,5.21,2.52h0C177.91,42.11,181,41.09,179.93,44.07Z"/></g></svg>