<svg xmlns="http://www.w3.org/2000/svg" viewBox="0 0 648 216"><defs><style>.cls-1{fill:#fa360a;}</style></defs><title>logo</title><g id="Layer_2" data-name="Layer 2"><path class="cls-1" d="M172.25,129.82q-7.42,0-11.81-4.58t-4.83-12.49c0-.62-.07-1.43-.07-2.41s0-1.79.07-2.41A21.1,21.1,0,0,1,158,99,14.94,14.94,0,0,1,163.71,93a16.88,16.88,0,0,1,8.54-2.08,17.09,17.09,0,0,1,9.18,2.3,14.75,14.75,0,0,1,5.65,6.55,23.79,23.79,0,0,1,1.94,9.94V111a1.57,1.57,0,0,1-.47,1.23,1.71,1.71,0,0,1-1.18.43H162.45v.65a15.09,15.09,0,0,0,1.3,5.5,10.19,10.19,0,0,0,3.31,4.14,8.51,8.51,0,0,0,5.19,1.59,10.55,10.55,0,0,0,4.32-.79,11.06,11.06,0,0,0,2.8-1.77,11.39,11.39,0,0,0,1.44-1.47,3.71,3.71,0,0,1,1-1.12,2.71,2.71,0,0,1,1.15-.18h3.46a1.77,1.77,0,0,1,1.19.4,1.19,1.19,0,0,1,.39,1.11,5.59,5.59,0,0,1-1.15,2.63,14,14,0,0,1-3.09,3.06,17.18,17.18,0,0,1-4.9,2.48A20.63,20.63,0,0,1,172.25,129.82Zm-9.8-22.18h19.73v-.22a13.24,13.24,0,0,0-1.19-5.76,9.51,9.51,0,0,0-3.42-4,9.38,9.38,0,0,0-5.32-1.48,9,9,0,0,0-8.64,5.47,13.68,13.68,0,0,0-1.16,5.76Z"/><path class="cls-1" d="M198.74,84.67A1.59,1.59,0,0,1,197.09,83V79.13a1.61,1.61,0,0,1,.46-1.19,1.64,1.64,0,0,1,1.19-.47h4.54a1.61,1.61,0,0,1,1.65,1.66V83a1.61,1.61,0,0,1-1.65,1.65Zm.58,44.43a1.61,1.61,0,0,1-1.66-1.66V93.31a1.64,1.64,0,0,1,.47-1.19,1.61,1.61,0,0,1,1.19-.46h3.45a1.51,1.51,0,0,1,1.16.46,1.74,1.74,0,0,1,.43,1.19v34.13a1.72,1.72,0,0,1-.43,1.19,1.52,1.52,0,0,1-1.16.47Z"/><path class="cls-1" d="M230.42,144.94a21.3,21.3,0,0,1-8-1.3,14.13,14.13,0,0,1-4.89-3.13,12,12,0,0,1-2.52-3.67,10,10,0,0,1-.83-2.92,1.39,1.39,0,0,1,.47-1.22,1.68,1.68,0,0,1,1.18-.51h3.46a1.93,1.93,0,0,1,1.08.29,2.19,2.19,0,0,1,.72,1.22,14.32,14.32,0,0,0,1.3,2.42,7.11,7.11,0,0,0,2.66,2.3,10.72,10.72,0,0,0,5,1,15.72,15.72,0,0,0,5.69-.9,6.51,6.51,0,0,0,3.49-3.17,13.54,13.54,0,0,0,1.19-6.22v-4.9a13.74,13.74,0,0,1-4.54,3.71,15.09,15.09,0,0,1-7,1.47,15.62,15.62,0,0,1-6.92-1.4,12.93,12.93,0,0,1-4.71-3.82,16.51,16.51,0,0,1-2.74-5.5,27.08,27.08,0,0,1-1-6.48q-.08-2,0-4a26.92,26.92,0,0,1,1-6.48,17,17,0,0,1,2.74-5.55,12.8,12.8,0,0,1,4.71-3.85,15.62,15.62,0,0,1,6.92-1.4A14.31,14.31,0,0,1,236,92.56a15.45,15.45,0,0,1,4.64,3.92v-3.1a1.74,1.74,0,0,1,.47-1.22,1.54,1.54,0,0,1,1.19-.5h3.31a1.71,1.71,0,0,1,1.73,1.72V128.3a21.4,21.4,0,0,1-1.62,8.57,12.44,12.44,0,0,1-5.33,5.91Q236.69,144.94,230.42,144.94Zm-.14-21.32a9.38,9.38,0,0,0,5.79-1.65,9.84,9.84,0,0,0,3.24-4.18,14.25,14.25,0,0,0,1.12-5.11c0-.67.07-1.5.07-2.48s0-1.82-.07-2.49a14.25,14.25,0,0,0-1.12-5.11,9.84,9.84,0,0,0-3.24-4.18,11,11,0,0,0-11.55,0,8.87,8.87,0,0,0-3.1,4.25,19.74,19.74,0,0,0-1.08,5.65q-.08,1.88,0,3.81a19.88,19.88,0,0,0,1.08,5.66,8.89,8.89,0,0,0,3.1,4.24A9.37,9.37,0,0,0,230.28,123.62Z"/><path class="cls-1" d="M259.79,129.1a1.61,1.61,0,0,1-1.65-1.66V79.63A1.59,1.59,0,0,1,259.79,78h3.61a1.59,1.59,0,0,1,1.22.46,1.69,1.69,0,0,1,.43,1.19V96.41a15.31,15.31,0,0,1,4.75-4,14.92,14.92,0,0,1,7.13-1.51,14.71,14.71,0,0,1,8,2,13.06,13.06,0,0,1,5,5.69,20,20,0,0,1,1.69,8.46v20.3a1.72,1.72,0,0,1-.43,1.19,1.6,1.6,0,0,1-1.23.47h-3.6a1.64,1.64,0,0,1-1.19-.47,1.61,1.61,0,0,1-.46-1.19V107.5q0-5-2.45-7.89c-1.64-1.89-4-2.84-7.2-2.84a9.54,9.54,0,0,0-7.2,2.84q-2.75,2.85-2.74,7.89v19.94a1.67,1.67,0,0,1-.43,1.19,1.6,1.6,0,0,1-1.22.47Z"/><path class="cls-1" d="M316,129.1a12.42,12.42,0,0,1-6.56-1.55,9,9,0,0,1-3.67-4.39,17.87,17.87,0,0,1-1.15-6.74v-19H299a1.61,1.61,0,0,1-1.65-1.66V93.31A1.59,1.59,0,0,1,299,91.66h5.62v-12a1.64,1.64,0,0,1,.47-1.19,1.6,1.6,0,0,1,1.19-.46h3.38a1.61,1.61,0,0,1,1.19.46,1.64,1.64,0,0,1,.47,1.19v12h8.92a1.61,1.61,0,0,1,1.19.46,1.64,1.64,0,0,1,.47,1.19v2.45a1.61,1.61,0,0,1-1.66,1.66h-8.92v18.5a10.44,10.44,0,0,0,1.15,5.33c.77,1.29,2.13,1.94,4.1,1.94h4.39a1.61,1.61,0,0,1,1.66,1.66v2.59a1.61,1.61,0,0,1-1.66,1.66Z"/><path class="cls-1" d="M349.72,129.1a1.58,1.58,0,0,1-1.22-.47,1.67,1.67,0,0,1-.43-1.19v-47a1.8,1.8,0,0,1,.43-1.26,1.58,1.58,0,0,1,1.22-.46h17.57q8.13,0,12.89,3.81c3.17,2.55,4.75,6.31,4.75,11.31a14.08,14.08,0,0,1-2.77,9,14.37,14.37,0,0,1-7.53,4.86l11.09,19.15a1.76,1.76,0,0,1,.22.8,1.32,1.32,0,0,1-.47,1,1.5,1.5,0,0,1-1,.44H381a2.29,2.29,0,0,1-1.8-.65,12.72,12.72,0,0,1-1-1.3l-10.44-18.29h-12.6v18.58a1.58,1.58,0,0,1-.47,1.19,1.71,1.71,0,0,1-1.26.47Zm5.4-26.36H367q5.4,0,8.07-2.26c1.77-1.52,2.66-3.76,2.66-6.74a8.43,8.43,0,0,0-2.63-6.69q-2.62-2.31-8.1-2.31H355.12Z"/><path class="cls-1" d="M408.76,129.82q-7.41,0-11.81-4.58t-4.82-12.49c-.05-.62-.07-1.43-.07-2.41s0-1.79.07-2.41a21,21,0,0,1,2.38-9A14.94,14.94,0,0,1,400.23,93a16.85,16.85,0,0,1,8.53-2.08,17,17,0,0,1,9.18,2.3,14.69,14.69,0,0,1,5.65,6.55,23.63,23.63,0,0,1,2,9.94V111a1.6,1.6,0,0,1-.47,1.23,1.72,1.72,0,0,1-1.19.43H399v.65a15.09,15.09,0,0,0,1.3,5.5,10.1,10.1,0,0,0,3.31,4.14,8.5,8.5,0,0,0,5.18,1.59,10.49,10.49,0,0,0,4.32-.79,11.13,11.13,0,0,0,2.81-1.77,11.39,11.39,0,0,0,1.44-1.47,3.59,3.59,0,0,1,1-1.12,2.71,2.71,0,0,1,1.15-.18H423a1.72,1.72,0,0,1,1.18.4,1.17,1.17,0,0,1,.4,1.11,5.59,5.59,0,0,1-1.15,2.63,13.85,13.85,0,0,1-3.1,3.06,17,17,0,0,1-4.89,2.48A20.65,20.65,0,0,1,408.76,129.82ZM399,107.64H418.7v-.22a13.39,13.39,0,0,0-1.19-5.76,9.51,9.51,0,0,0-3.42-4,9.39,9.39,0,0,0-5.33-1.48,9.21,9.21,0,0,0-5.29,1.48,9.43,9.43,0,0,0-3.35,4,13.68,13.68,0,0,0-1.15,5.76Z"/><path class="cls-1" d="M449.3,129.82a18.47,18.47,0,0,1-8.82-2,13.84,13.84,0,0,1-5.73-5.69,19.64,19.64,0,0,1-2.16-8.89c0-.72-.07-1.68-.07-2.88s0-2.16.07-2.88a19.68,19.68,0,0,1,2.16-8.9,13.82,13.82,0,0,1,5.73-5.68,18.47,18.47,0,0,1,8.82-2,19.87,19.87,0,0,1,7.16,1.15,15.2,15.2,0,0,1,4.93,3,12.54,12.54,0,0,1,2.92,3.89,10.15,10.15,0,0,1,1,4,1.24,1.24,0,0,1-.43,1.15,1.78,1.78,0,0,1-1.22.43h-3.46a1.6,1.6,0,0,1-1.08-.32,3.48,3.48,0,0,1-.72-1.12,9.61,9.61,0,0,0-3.52-5,10,10,0,0,0-5.55-1.44,9.55,9.55,0,0,0-7,2.67q-2.7,2.65-2.92,8.57-.06,2.58,0,5,.22,6,2.92,8.6a9.65,9.65,0,0,0,7,2.63,10,10,0,0,0,5.55-1.44,9.61,9.61,0,0,0,3.52-5,3.48,3.48,0,0,1,.72-1.12,1.6,1.6,0,0,1,1.08-.32h3.46a1.78,1.78,0,0,1,1.22.43,1.24,1.24,0,0,1,.43,1.15,10.4,10.4,0,0,1-.64,3.1,12,12,0,0,1-1.84,3.2,13.35,13.35,0,0,1-3.13,2.88,15.81,15.81,0,0,1-4.5,2A21.62,21.62,0,0,1,449.3,129.82Z"/><path class="cls-1" d="M489.26,129.82a18.32,18.32,0,0,1-9.15-2.09,14.05,14.05,0,0,1-5.61-5.8,19.81,19.81,0,0,1-2.16-8.46c0-.81-.07-1.86-.07-3.13s0-2.29.07-3.06a19.46,19.46,0,0,1,2.19-8.5A14.45,14.45,0,0,1,480.19,93a20.82,20.82,0,0,1,18.14,0A14.42,14.42,0,0,1,504,98.78a19.61,19.61,0,0,1,2.2,8.5c0,.77.07,1.79.07,3.06s0,2.32-.07,3.13a20.11,20.11,0,0,1-2.16,8.46,14.08,14.08,0,0,1-5.62,5.8A18.28,18.28,0,0,1,489.26,129.82Zm0-5.55a9.34,9.34,0,0,0,7.13-2.84q2.66-2.85,2.88-8.32c0-.72.07-1.63.07-2.73s0-2-.07-2.74q-.22-5.48-2.88-8.32a9.34,9.34,0,0,0-7.13-2.84,9.44,9.44,0,0,0-7.17,2.84c-1.8,1.9-2.74,4.67-2.84,8.32-.05.72-.07,1.63-.07,2.74s0,2,.07,2.73c.1,3.65,1,6.42,2.84,8.32A9.44,9.44,0,0,0,489.26,124.27Z"/><path class="cls-1" d="M516.91,129.1a1.6,1.6,0,0,1-1.19-.47,1.58,1.58,0,0,1-.47-1.19V93.38a1.7,1.7,0,0,1,.47-1.22,1.52,1.52,0,0,1,1.19-.5h3.31A1.72,1.72,0,0,1,522,93.38v3.17a9.06,9.06,0,0,1,4-3.67,13.61,13.61,0,0,1,6-1.22h2.88a1.51,1.51,0,0,1,1.16.46,1.74,1.74,0,0,1,.43,1.19v3a1.48,1.48,0,0,1-1.59,1.59h-4.32a8.17,8.17,0,0,0-6.12,2.27,8.37,8.37,0,0,0-2.23,6.15v21.17a1.57,1.57,0,0,1-.5,1.19,1.77,1.77,0,0,1-1.23.47Z"/><path class="cls-1" d="M555.35,129.82a15.41,15.41,0,0,1-6.84-1.41,12.91,12.91,0,0,1-4.71-3.81,16.65,16.65,0,0,1-2.74-5.51,27.26,27.26,0,0,1-1-6.55c0-.77-.08-1.49-.08-2.16s0-1.4.08-2.16a26.92,26.92,0,0,1,1-6.48,17,17,0,0,1,2.74-5.55,12.8,12.8,0,0,1,4.71-3.85,15.41,15.41,0,0,1,6.84-1.4,14.76,14.76,0,0,1,7.06,1.51A14.92,14.92,0,0,1,567,96.19V79.63A1.58,1.58,0,0,1,568.67,78h3.46a1.59,1.59,0,0,1,1.66,1.65v47.81a1.61,1.61,0,0,1-1.66,1.66h-3.24a1.57,1.57,0,0,1-1.22-.47,1.68,1.68,0,0,1-.44-1.19v-3a14.66,14.66,0,0,1-4.68,3.85A15.1,15.1,0,0,1,555.35,129.82Zm1.51-5.84a9.3,9.3,0,0,0,5.77-1.65,10.35,10.35,0,0,0,3.23-4.21A14.41,14.41,0,0,0,567,112.9c0-.77.07-1.7.07-2.78s0-2-.07-2.77a12.92,12.92,0,0,0-1.19-5,10.13,10.13,0,0,0-3.31-4,11.11,11.11,0,0,0-11.49,0,8.86,8.86,0,0,0-3.09,4.25,19.08,19.08,0,0,0-1.08,5.65q-.08,2.08,0,4.17a19.21,19.21,0,0,0,1.08,5.66,8.88,8.88,0,0,0,3.09,4.24A9.51,9.51,0,0,0,556.86,124Z"/><path class="cls-1" d="M599.42,129.82q-7.42,0-11.81-4.58t-4.83-12.49c0-.62-.07-1.43-.07-2.41s0-1.79.07-2.41a21.1,21.1,0,0,1,2.38-9A14.94,14.94,0,0,1,590.88,93a16.88,16.88,0,0,1,8.54-2.08,17.09,17.09,0,0,1,9.18,2.3,14.75,14.75,0,0,1,5.65,6.55,23.79,23.79,0,0,1,1.94,9.94V111a1.57,1.57,0,0,1-.47,1.23,1.71,1.71,0,0,1-1.18.43H589.62v.65a15.09,15.09,0,0,0,1.3,5.5,10.19,10.19,0,0,0,3.31,4.14,8.51,8.51,0,0,0,5.19,1.59,10.55,10.55,0,0,0,4.32-.79,11.06,11.06,0,0,0,2.8-1.77,11.39,11.39,0,0,0,1.44-1.47,3.71,3.71,0,0,1,1-1.12,2.75,2.75,0,0,1,1.15-.18h3.46a1.77,1.77,0,0,1,1.19.4,1.19,1.19,0,0,1,.39,1.11A5.59,5.59,0,0,1,614,123.3a14,14,0,0,1-3.09,3.06,17.18,17.18,0,0,1-4.9,2.48A20.63,20.63,0,0,1,599.42,129.82Zm-9.8-22.18h19.73v-.22a13.24,13.24,0,0,0-1.19-5.76,9.51,9.51,0,0,0-3.42-4,9.38,9.38,0,0,0-5.32-1.48,9,9,0,0,0-8.64,5.47,13.68,13.68,0,0,0-1.16,5.76Z"/><path class="cls-1" d="M626.49,129.1a1.61,1.61,0,0,1-1.66-1.66V93.38a1.74,1.74,0,0,1,.47-1.22,1.54,1.54,0,0,1,1.19-.5h3.31a1.63,1.63,0,0,1,1.22.5,1.65,1.65,0,0,1,.51,1.22v3.17a9.17,9.17,0,0,1,4-3.67,13.66,13.66,0,0,1,6-1.22h2.88a1.49,1.49,0,0,1,1.15.46,1.69,1.69,0,0,1,.43,1.19v3a1.57,1.57,0,0,1-.43,1.16,1.59,1.59,0,0,1-1.15.43H640.1a8.14,8.14,0,0,0-6.12,2.27,8.38,8.38,0,0,0-2.24,6.15v21.17a1.54,1.54,0,0,1-.5,1.19,1.74,1.74,0,0,1-1.22.47Z"/><path class="cls-1" d="M163.16,24A4.95,4.95,0,1,1,158.21,29,4.95,4.95,0,0,1,163.16,24m0-5a9.95,9.95,0,1,0,10,9.94,9.95,9.95,0,0,0-10-9.94Z"/><rect class="cls-1" x="-24.7" y="115.94" width="132.67" height="11.5" rx="5.75" transform="translate(141.75 40.95) rotate(70)"/><rect class="cls-1" x="57.54" y="141.03" width="79.19" height="11.5" rx="5.75" transform="translate(201.84 5.3) rotate(70)"/><rect class="cls-1" x="34.35" y="141.05" width="79.19" height="11.5" rx="5.75" transform="translate(-89.29 166.08) rotate(-70)"/><path class="cls-1" d="M60.22,103.61h152a1.15,1.15,0,0,1,1.15,1.15V114a1.15,1.15,0,0,1-1.15,1.15h-152a5.75,5.75,0,0,1-5.75-5.75v0a5.75,5.75,0,0,1,5.75-5.75Z" transform="translate(-14.66 197.77) rotate(-70)"/></g></svg>